<svg width="21" height="20" viewBox="0 0 21 20" fill="none" xmlns="http://www.w3.org/2000/svg">
<path fill-rule="evenodd" clip-rule="evenodd" d="M3.01366 8.80075C3.01366 8.80075 2.34126 9.03376 2.39434 9.46387C2.44743 9.89392 2.99598 10.0911 2.99598 10.0911L6.57052 11.3097L15.153 5.78999C15.153 5.78999 15.6485 5.48537 15.6308 5.78999C15.6308 5.78999 15.7193 5.84376 15.4539 6.09467C15.1884 6.34558 8.71176 12.2416 8.71176 12.2416L8.69886 12.3529L14.5336 16.8832C15.5069 17.3133 15.8608 16.4173 15.8608 16.4173L18.3914 3.49612C18.3914 2.6359 17.2234 3.15558 17.2234 3.15558L3.01366 8.80075Z" fill="currentColor"/>
<path fill-rule="evenodd" clip-rule="evenodd" d="M11.9051 13.8258L8.62321 16.2202C8.62321 16.2202 8.44266 16.3589 8.24512 16.272L8.62321 12.2505L11.9051 13.8258Z" fill="currentColor"/>
</svg>
