<svg width="21" height="20" viewBox="0 0 21 20" fill="none" xmlns="http://www.w3.org/2000/svg">
<g clip-path="url(#clip0)">
<path fill-rule="evenodd" clip-rule="evenodd" d="M16.9853 10.3341C17.0414 10.2837 16.9977 10.3522 17.0395 10.2523L17.1403 9.90044C17.6815 9.88333 18.0543 9.84243 18.4917 9.66935L19.3914 9.05215C19.0927 9.04835 18.7799 9.12823 18.2958 9.05406L17.3134 8.84769C17.3943 8.79634 17.5188 8.79538 17.6339 8.77827C17.7518 8.7602 17.8536 8.74498 17.9696 8.7174C18.196 8.66415 18.3614 8.61374 18.5516 8.52625L19.3067 7.78828C18.9615 7.92332 18.6505 7.98038 18.1855 7.98513C17.9601 7.98799 17.1403 7.97467 17.0643 7.77306C16.9739 7.53341 16.9749 7.30802 16.7866 6.8601C16.6667 6.5748 16.5184 6.30187 16.352 6.05651C16.0106 5.55058 15.5864 5.13024 15.0862 4.8069L13.0178 4.22774C13.1471 4.10316 13.635 4.00521 13.8109 3.95766C14.7324 3.7123 14.6535 3.37564 14.43 3.31288C14.1456 3.23299 13.4505 3.49547 13.1395 3.58962L13.6968 3C13.1167 3.05421 12.7382 3.34236 12.3045 3.61054L12.4843 3.16738C11.9384 3.34997 10.9522 4.65284 10.6793 5.17398L9.52189 7.7122C9.42299 7.6713 8.73922 6.96947 8.21617 6.65754C7.75969 6.3846 7.1501 6.0936 6.6261 5.85109C5.36413 5.26623 4.46258 4.91056 3.17113 4.43886C3.10646 5.5734 3.83492 6.19631 4.74313 6.80685L3.63616 6.95235C3.65518 7.43641 4.02893 7.94139 4.31328 8.18294C4.82967 8.6242 5.09975 8.62611 5.57335 8.80489L5.6713 8.8553C4.90765 8.98749 5.13589 8.90285 4.47209 9.3327C4.48065 9.63512 5.13779 10.277 5.63326 10.3874L6.73737 10.53C6.66129 10.6004 6.54147 10.6498 6.45207 10.7078C6.3389 10.7801 6.2923 10.8229 6.21147 10.9199C6.05931 11.1054 5.98038 11.3146 6.07928 11.5704L7.35837 12.1524C7.2899 12.2875 6.87241 12.6232 6.73166 12.7211C5.96706 13.2499 5.10736 13.6227 4.01181 13.6702C3.23294 13.7054 2.4788 13.557 1.88347 13.3183C1.19685 13.0435 0.915358 12.8143 0.391357 12.4092C0.545419 12.6736 0.893485 13.0397 1.10556 13.2641C3.10931 15.3896 6.35222 16.5631 9.74158 15.9583C11.8109 15.5884 13.1452 14.8742 14.3568 13.9888C14.5565 13.8423 15.0329 13.4153 15.2041 13.2384C15.731 12.6954 16.1998 12.1134 16.5422 11.4411C16.6449 11.2385 17.0005 10.5386 16.9853 10.3341Z" fill="currentColor"/>
</g>
</svg>
