<svg width="21" height="20" viewBox="0 0 21 20" fill="none" xmlns="http://www.w3.org/2000/svg">
<path fill-rule="evenodd" clip-rule="evenodd" d="M16.8255 11.3016C17.9303 12.2815 18.7001 13.0797 19.136 13.696C19.3398 14.0042 19.4054 14.2774 19.3327 14.5146C19.2601 14.7528 19.0926 14.8724 18.8313 14.8724L15.9537 14.9978C15.5471 15.026 15.0527 14.7878 14.4715 14.2842C13.8894 13.7796 13.4979 13.3597 13.2941 13.0233C13.1781 12.8279 12.9672 12.7161 12.6615 12.6879C12.3568 12.6597 12.16 12.7997 12.0732 13.1079L11.9855 14.1996C11.9572 14.4242 11.8694 14.5924 11.7241 14.7042C11.5788 14.816 11.4558 14.8792 11.3539 14.8937C11.2519 14.9073 11.0855 14.9278 10.8524 14.956C10.0967 14.9842 9.43581 14.9492 8.86878 14.851C8.30174 14.7528 7.78616 14.5506 7.32103 14.2424C6.8559 13.9342 6.48561 13.6542 6.20915 13.4015C5.9327 13.1497 5.53315 12.7433 5.0105 12.1833C3.58585 10.2235 2.52543 8.52896 1.82723 7.10085C1.56591 6.54088 1.42062 6.06452 1.39136 5.67274C1.50739 5.55997 1.72633 5.48997 2.04617 5.46178C2.36601 5.43456 2.83014 5.42678 3.44056 5.44136C4.05098 5.45497 4.41421 5.46178 4.53024 5.46178C4.82183 5.43456 5.05389 5.58816 5.22844 5.92453C5.95489 7.49264 6.66722 8.71076 7.36441 9.5789C7.82955 9.99888 8.13526 9.92888 8.28055 9.36892C8.33907 9.36892 8.36732 8.68257 8.36732 7.31084C8.39658 6.4427 8.03336 5.89634 7.27764 5.67274C7.45219 5.22457 8.06262 5 9.10891 5C9.37023 5 9.69007 5.01361 10.0684 5.0418C10.4458 5.07 10.6496 5.08458 10.6778 5.08458C11.5506 5.08458 11.9865 5.41998 11.9865 6.09272C11.9855 6.17632 11.9713 6.3795 11.9431 6.70129C11.9138 7.02308 11.8916 7.33126 11.8775 7.62582C11.8624 7.91942 11.8553 8.22759 11.8553 8.55035C11.8553 8.87214 11.8987 9.14532 11.9865 9.36892C12.0732 9.59349 12.1893 9.73348 12.3346 9.78889C12.495 9.67709 12.6473 9.5721 12.7926 9.47391C12.9379 9.37572 13.0903 9.21531 13.2507 8.99074C13.4111 8.76715 13.5342 8.59896 13.621 8.48716C13.7088 8.37439 13.8389 8.1644 14.0135 7.85623C14.188 7.54805 14.2899 7.35264 14.3192 7.26806C14.3474 7.18446 14.4493 6.96767 14.6239 6.61769C14.7984 6.26771 14.8852 6.09272 14.8852 6.09272L14.9508 5.96633C15.0668 5.71454 15.1617 5.56775 15.2343 5.52497C15.307 5.48317 15.4886 5.46178 15.7792 5.46178H18.4822C18.802 5.46178 18.9907 5.46956 19.0492 5.48317C19.1067 5.49775 19.1945 5.55997 19.3105 5.67274C19.5143 5.92453 19.3327 6.47089 18.7657 7.31084C18.1987 8.15079 17.6538 8.85075 17.1312 9.41169C16.4037 10.1953 16.3028 10.8252 16.8255 11.3016Z" fill="currentColor"/>
</svg>
