<svg width="109" height="20" viewBox="0 0 109 20" fill="none" xmlns="http://www.w3.org/2000/svg">
<path d="M30.6395 13.3485C31.0409 13.3731 31.4433 13.3183 31.8231 13.1872C32.0614 13.0635 32.1984 12.8071 32.1678 12.542C32.1484 12.2617 31.9763 12.0142 31.719 11.8968C31.2839 11.6422 30.8269 11.4263 30.3534 11.2517C29.9107 11.0908 29.4766 10.9078 29.0527 10.7033C28.6891 10.5309 28.3555 10.3022 28.0642 10.0259C27.7831 9.76077 27.5615 9.43981 27.4139 9.08394C27.2563 8.67203 27.1791 8.23415 27.1863 7.79362C27.1513 6.86993 27.5709 5.98696 28.3113 5.42588C29.223 4.80188 30.3215 4.50386 31.4264 4.58072C32.057 4.57929 32.6864 4.63762 33.3058 4.75491C33.7925 4.83942 34.2711 4.9646 34.7365 5.12911L34.2033 7.47749C33.8256 7.3497 33.4414 7.24202 33.0522 7.15491C32.593 7.05576 32.124 7.00815 31.654 7.01298C30.7002 7.01298 30.2233 7.27534 30.2233 7.80007C30.2205 7.91043 30.2404 8.02018 30.2818 8.12265C30.3382 8.23336 30.4235 8.32696 30.5289 8.39362C30.6875 8.50201 30.855 8.59697 31.0297 8.67749C31.2421 8.78072 31.5109 8.89255 31.8361 9.01298C32.4036 9.21396 32.9556 9.45545 33.4879 9.73556C33.8731 9.93547 34.2225 10.197 34.5219 10.5098C34.7673 10.7736 34.9496 11.0889 35.0552 11.4323C35.1644 11.8141 35.217 12.2097 35.2113 12.6065C35.266 13.5531 34.8169 14.4589 34.0277 14.9936C33.0083 15.5889 31.8333 15.8697 30.6525 15.8001C29.852 15.816 29.0525 15.7337 28.2723 15.5549C27.8296 15.4503 27.3949 15.3145 26.9717 15.1485L27.4789 12.6968C27.9956 12.9 28.5286 13.0597 29.0722 13.1743C29.5873 13.2852 30.1125 13.3436 30.6395 13.3485Z" fill="currentColor"/>
<path d="M43.9047 7.53527C43.6315 7.46645 43.3129 7.39548 42.9487 7.32236C42.5589 7.2467 42.1623 7.20996 41.7651 7.21268C41.5366 7.21589 41.3086 7.23313 41.0823 7.2643C40.8782 7.28558 40.676 7.32225 40.4775 7.37398V15.4837H37.434V5.42559C38.0738 5.21151 38.7251 5.03274 39.3849 4.8901C40.1881 4.71679 41.0082 4.6324 41.8301 4.63849C41.9949 4.63849 42.1922 4.63849 42.4219 4.63849C42.6517 4.63849 42.888 4.67505 43.1308 4.74817C43.3606 4.78258 43.5925 4.82344 43.8266 4.87075C44.029 4.91033 44.2271 4.96865 44.4184 5.04494L43.9047 7.53527Z" fill="currentColor"/>
<path fill-rule="evenodd" clip-rule="evenodd" d="M51.9439 4.8837C51.2174 4.66335 50.4597 4.56095 49.7003 4.58047C49.3621 4.57617 49.0196 4.59122 48.6728 4.62563C48.3259 4.66004 47.9964 4.7009 47.6843 4.74821C47.3418 4.79983 47.0426 4.85574 46.7868 4.91596C46.531 4.97617 46.3143 5.03423 46.1365 5.09015L46.5267 7.52241C46.9483 7.37352 47.3841 7.2676 47.8274 7.20628C48.3334 7.13251 48.8442 7.09585 49.3556 7.0966C49.9315 7.03818 50.5083 7.19967 50.9684 7.54821C51.2896 7.87963 51.459 8.3277 51.4366 8.78692V9.07079C51.1913 9.00791 50.9412 8.96476 50.6888 8.94176C50.3388 8.90557 49.9871 8.88834 49.6353 8.89015C49.0747 8.88025 48.5146 8.92781 47.9639 9.03208C47.4473 9.14448 46.9543 9.34533 46.5072 9.62563C46.0888 9.87981 45.742 10.2349 45.4992 10.6579C45.2345 11.1423 45.1044 11.6878 45.122 12.2385C45.1046 12.8021 45.2157 13.3623 45.4472 13.8772C45.6569 14.3146 45.9801 14.6887 46.3836 14.9611C46.8313 15.2551 47.3329 15.459 47.8599 15.5611C48.4803 15.6875 49.1125 15.7481 49.7458 15.7418C50.6882 15.7526 51.6299 15.6879 52.5617 15.5482C53.3378 15.4192 53.9426 15.3074 54.3761 15.2127V8.93531C54.3816 8.32792 54.3051 7.72253 54.1485 7.13531C54.0117 6.61921 53.7481 6.14483 53.3811 5.75466C52.9808 5.35237 52.4874 5.05336 51.9439 4.8837ZM50.8057 13.4127H49.9473V13.4063C49.5161 13.4225 49.0874 13.3339 48.6987 13.1482C48.3631 12.939 48.1765 12.5587 48.2174 12.1676C48.2094 11.9539 48.266 11.7426 48.38 11.5611C48.4924 11.3949 48.6472 11.2613 48.8287 11.174C49.0336 11.0752 49.2532 11.0098 49.4791 10.9805C49.7464 10.9455 50.0158 10.9283 50.2855 10.9289C50.5028 10.9304 50.7198 10.9434 50.9358 10.9676C51.1612 10.9676 51.3346 10.9912 51.456 11.0385V13.3547C51.2405 13.386 51.0234 13.4054 50.8057 13.4127Z" fill="currentColor"/>
<path d="M59.8 15.4837C59.0933 14.1547 58.3866 12.5848 57.6799 10.774C56.9732 8.96329 56.2947 6.99124 55.6444 4.85791H58.896C59.0304 5.38264 59.1908 5.95253 59.3773 6.56759C59.5637 7.18264 59.7544 7.80415 59.9495 8.4321C60.149 9.06006 60.3462 9.67081 60.5413 10.2644C60.7364 10.8579 60.9315 11.3977 61.1266 11.8837C61.3044 11.3977 61.4951 10.8579 61.6989 10.2644C61.9027 9.67081 62.1043 9.06006 62.3037 8.4321C62.5031 7.80415 62.6939 7.18264 62.876 6.56759C63.0581 5.95253 63.2185 5.38264 63.3572 4.85791H66.4788C65.8371 7.00845 65.1586 8.98049 64.4433 10.774C63.7279 12.5676 63.0212 14.1375 62.3232 15.4837H59.8Z" fill="currentColor"/>
<path d="M68.0928 5.22576C68.7515 5.0484 69.4204 4.91052 70.0958 4.81285C70.9563 4.68019 71.8262 4.61547 72.6971 4.6193C73.4713 4.59706 74.2431 4.71738 74.9732 4.97414C75.5316 5.17804 76.027 5.52268 76.4104 5.97414C76.7735 6.42656 77.0312 6.95315 77.1648 7.51608C77.3221 8.16675 77.3985 8.83408 77.3924 9.50318V15.4838H74.3489V9.86447C74.4031 9.15428 74.2685 8.44241 73.9587 7.79995C73.6183 7.35639 73.0662 7.12549 72.5085 7.1935C72.2917 7.1935 72.0597 7.1935 71.8126 7.1935L71.1623 7.26447V15.4838H68.1188L68.0928 5.22576Z" fill="currentColor"/>
<path fill-rule="evenodd" clip-rule="evenodd" d="M82.9114 3.07085C83.2741 2.7406 83.4716 2.26851 83.4512 1.78053C83.4716 1.29255 83.2741 0.820455 82.9114 0.490206C82.1791 -0.136709 81.0944 -0.136709 80.3621 0.490206C79.9994 0.820455 79.8019 1.29255 79.8224 1.78053C79.8019 2.26851 79.9994 2.7406 80.3621 3.07085C81.0944 3.69777 82.1791 3.69777 82.9114 3.07085ZM80.1162 15.4838H83.1597V4.85796H80.1162V15.4838Z" fill="currentColor"/>
<path d="M88.9911 13.9162C89.026 14.4427 88.8121 14.9553 88.4123 15.3033C87.6564 15.9195 86.5669 15.9195 85.811 15.3033C85.4112 14.9553 85.1973 14.4427 85.2322 13.9162C85.1973 13.3897 85.4112 12.877 85.811 12.5291C86.5669 11.9128 87.6564 11.9128 88.4123 12.5291C88.8121 12.877 89.026 13.3897 88.9911 13.9162Z" fill="currentColor"/>
<path d="M97.5056 7.53554C97.2325 7.46672 96.9138 7.39576 96.5496 7.32264C96.1598 7.24698 95.7633 7.21023 95.3661 7.21296C95.1376 7.21616 94.9095 7.2334 94.6832 7.26457C94.4791 7.28586 94.2769 7.32252 94.0784 7.37425V15.4839H91.0349V5.42586C91.6748 5.21178 92.3261 5.03301 92.9859 4.89038C93.7997 4.71467 94.6308 4.63027 95.4636 4.63877C95.6284 4.63877 95.8256 4.63877 96.0554 4.63877C96.2852 4.63877 96.5171 4.66672 96.7512 4.72264C96.981 4.75705 97.213 4.79791 97.4471 4.84522C97.6494 4.88479 97.8475 4.94311 98.0389 5.01941L97.5056 7.53554Z" fill="currentColor"/>
<path d="M108.815 15.1482C108.156 15.3258 107.487 15.4637 106.812 15.5611C105.951 15.6938 105.081 15.7585 104.21 15.7547C103.436 15.7787 102.663 15.6561 101.934 15.3934C101.374 15.1812 100.878 14.8276 100.497 14.3676C100.133 13.9064 99.875 13.3711 99.7428 12.7998C99.5862 12.1425 99.5098 11.4688 99.5152 10.7934V4.85791H102.559V10.4257C102.508 11.1502 102.642 11.8759 102.949 12.5353C103.275 13.0001 103.833 13.2484 104.399 13.1805C104.616 13.1805 104.848 13.1805 105.095 13.1805C105.342 13.1805 105.559 13.1568 105.745 13.1095V4.85791H108.815V15.1482Z" fill="currentColor"/>
<path d="M7.59708 12.0064C6.7269 10.5608 6.95748 8.71358 8.15681 7.52224C9.35614 6.3309 11.2178 6.09979 12.6761 6.96122L16.6691 2.99993C12.9758 -0.0110968 7.58169 0.251359 4.2031 3.60648C0.824501 6.9616 0.565314 12.3131 3.6041 15.9741L7.59708 12.0064Z" fill="currentColor"/>
<path d="M17.9843 4.30957L13.9913 8.27086C14.842 9.71649 14.6033 11.5494 13.4102 12.7331C12.2171 13.9167 10.3695 14.1535 8.91229 13.3096L4.91931 17.2773C8.61258 20.2744 13.9942 20.0071 17.3673 16.6591C20.7404 13.3111 21.0071 7.97204 17.9843 4.30957Z" fill="currentColor"/>
</svg>
