<svg width="88" height="20" viewBox="0 0 88 20" fill="none" xmlns="http://www.w3.org/2000/svg">
<path fill-rule="evenodd" clip-rule="evenodd" d="M47.9572 6.41408L47.956 6.49897C47.9487 7.00369 46.4415 17.1665 46.44 17.2722C46.4385 17.3772 46.3494 17.3759 46.3494 17.3759L41.8853 17.3119L41.7977 17.2056C41.7977 17.2056 42.5818 11.5821 43.041 8.34513L41.1546 8.31809C41.0545 10.241 40.7472 12.1486 40.2367 14.0131C39.507 16.6356 38.1958 17.7545 36.3101 17.7275C34.9221 17.6752 33.8119 16.6203 33.7665 15.3105C33.8171 14.8898 35.259 14.763 36.6323 11.6234C37.1965 9.91166 37.5953 8.15436 37.8231 6.37378C37.8204 6.34904 37.8283 6.32368 37.846 6.30464C37.8628 6.28481 37.8872 6.27204 37.9144 6.27011C41.2336 5.64615 44.6572 5.69523 47.9579 6.41409L47.9572 6.41408ZM15.1681 0.730638C16.1512 0.600387 17.1439 0.900991 17.8637 1.54812C18.5827 2.19447 18.9507 3.11522 18.8596 4.0479C18.7821 6.34318 16.3831 8.63606 13.0224 9.52573L16.9578 16.8287C16.9578 16.8287 17.0234 16.9346 16.8891 16.9327L10.6185 16.8428C10.5537 16.8388 10.4992 16.7948 10.4857 16.7359L8.05731 10.9188C7.35012 11.3927 6.88228 12.1224 6.76421 12.935C6.64691 13.7469 6.89098 14.5694 7.43809 15.2063C7.64499 15.515 6.40353 17.2988 4.27182 17.2682C3.32098 17.2592 2.41787 16.8688 1.78902 16.1944C1.15942 15.52 0.8628 14.6258 0.974451 13.7343C1.15223 11.4412 3.70653 9.2131 7.06671 8.36587L3.38616 1.2356C3.38616 1.2356 3.38826 1.08897 3.55578 1.09137L9.42571 1.17552C9.59323 1.17792 9.59143 1.30371 9.59143 1.30371L11.9182 7.15099C14.3254 5.86864 13.0067 2.827 12.5225 2.37776C12.3571 2.22873 13.0346 0.879132 15.1689 0.730649L15.1681 0.730638ZM74.5248 13.2094C74.0394 16.6883 75.7246 15.9645 75.3585 16.549C74.683 17.4949 73.5556 18.0623 72.3457 18.065C71.62 18.0886 70.915 17.8315 70.3943 17.3524C69.8744 16.8741 69.5842 16.2138 69.5918 15.5292C68.7709 16.9285 67.2537 17.8384 65.5615 17.9462C62.6375 17.9042 61.4452 14.6753 61.8901 11.6489C62.3351 8.62173 64.371 6.01721 67.4064 6.02908C68.8342 6.04028 70.0988 6.90441 70.5567 8.18152C70.6923 7.25641 70.788 6.79387 70.7898 6.66808C70.7916 6.54152 70.9259 6.54344 70.9259 6.54344L75.5794 6.61016C75.6229 6.62853 75.6495 6.67137 75.6451 6.71607C75.6451 6.71607 74.7586 11.696 74.5248 13.2094ZM70.1997 12.0305C70.3907 10.3906 70.0085 9.04744 68.8698 9.03112C67.7319 9.0148 66.943 10.3412 66.718 11.9806C66.4937 13.6207 66.8876 14.9424 68.0263 14.9588C69.1642 14.9751 69.9641 13.6705 70.1997 12.0305ZM33.0835 6.09511C33.0835 6.09511 32.2088 11.096 31.9756 12.5678C31.4789 16.0465 33.1633 15.3227 32.8538 15.908C32.1783 16.8539 31.0501 17.4213 29.841 17.424C29.1076 17.4598 28.3905 17.208 27.86 16.7272C27.3295 16.2464 27.0334 15.5806 27.0418 14.8876C26.2217 16.2869 24.7037 17.1968 23.0115 17.3045C20.0883 17.2626 18.8957 14.002 19.3402 11.0073C19.7854 8.01097 21.8098 5.36537 24.8561 5.40904C26.2839 5.41948 27.5493 6.28361 28.0065 7.56071C28.1428 6.63562 28.2385 6.17385 28.2403 6.04729C28.2421 5.92072 28.3764 5.92265 28.3764 5.92265L33.0186 5.9892C33.0621 6.00757 33.0887 6.05041 33.0835 6.09588L33.0835 6.09511ZM27.5943 11.4096L27.6055 11.4198C27.8184 9.7803 27.4143 8.43681 26.2749 8.42048C25.1369 8.40416 24.3369 9.72035 24.1119 11.3597C23.8884 12.9991 24.2823 14.3216 25.4202 14.3379C26.5589 14.3542 27.3587 13.0489 27.5943 11.4096ZM57.542 1.17987C62.2305 1.12127 63.6648 7.73459 54.2216 8.56794L54.1036 9.00854C56.7606 8.19369 60.4908 8.85851 60.7021 12.0209C60.9297 15.5733 57.8262 17.941 54.3227 17.8908C50.8184 17.8406 48.9458 15.3174 48.9891 12.2953C49.0575 7.52595 52.1062 1.23934 57.542 1.17987ZM56.6639 4.04259C55.6603 4.02821 54.9594 6.16712 54.7137 6.9324C54.7137 6.9324 57.0272 5.97522 57.2357 4.64052C57.2624 4.35685 57.2442 4.05091 56.6639 4.04259ZM56.4354 12.9817C56.5188 11.8451 56.1164 11.0706 55.0039 10.8539C54.5557 10.7996 54.1009 10.8255 53.6632 10.9297C53.4601 11.8854 52.8962 15.3632 54.5925 15.3875C55.7976 15.4048 56.4263 13.613 56.4354 12.9817Z" fill="currentColor"/>
</svg>
