<svg width="21" height="20" viewBox="0 0 21 20" fill="none" xmlns="http://www.w3.org/2000/svg">
<path fill-rule="evenodd" clip-rule="evenodd" d="M8.15269 10.4773C8.19661 10.5314 8.17179 10.9085 8.17179 10.9785L8.17465 18H11.7021C11.7231 15.9065 11.7021 14.6913 11.7021 12.5876C11.7021 12.5568 11.6954 10.5501 11.705 10.5071C11.725 10.4726 13.9646 10.4903 14.042 10.4717L14.0811 10.4605L14.3914 7.55685H11.7136C11.7031 7.12844 11.7155 6.68791 11.7164 6.25764C11.7164 5.8647 11.7069 5.37936 11.9455 5.16469L14.377 4.92576L14.3732 2.0128C13.9131 1.98573 13.368 2.01 12.8983 2.01C12.4095 2.01 11.915 2.00067 11.4348 2.03147C10.5183 2.0912 9.77942 2.35814 9.24482 2.80334C8.46964 4.01762 8.16988 2.97508 8.16415 7.55778L6.39136 7.55871L6.39518 10.4754L8.15269 10.4773Z" fill="currentColor"/>
</svg>
